<?xml version="1.0" encoding="UTF-8" standalone="no"?>
<svg
   xmlns:dc="http://purl.org/dc/elements/1.1/"
   xmlns:cc="http://creativecommons.org/ns#"
   xmlns:rdf="http://www.w3.org/1999/02/22-rdf-syntax-ns#"
   xmlns:svg="http://www.w3.org/2000/svg"
   xmlns="http://www.w3.org/2000/svg"
   xmlns:sodipodi="http://sodipodi.sourceforge.net/DTD/sodipodi-0.dtd"
   xmlns:inkscape="http://www.inkscape.org/namespaces/inkscape"
   inkscape:export-ydpi="51.200001"
   inkscape:export-xdpi="51.200001"
   inkscape:export-filename="/home/george/Desktop/myAvatar-masked.png"
   inkscape:version="1.0 (4035a4fb49, 2020-05-01)"
   sodipodi:docname="myAvatar-masked.svg"
   id="svg193"
   style="overflow:hidden!important;"
   xlink="http://www.w3.org/1999/xlink"
   height="600px"
   width="600px"
   version="1.1">
  <metadata
     id="metadata197">
    <rdf:RDF>
      <cc:Work
         rdf:about="">
        <dc:format>image/svg+xml</dc:format>
        <dc:type
           rdf:resource="http://purl.org/dc/dcmitype/StillImage" />
        <dc:title></dc:title>
      </cc:Work>
    </rdf:RDF>
  </metadata>
  <sodipodi:namedview
     inkscape:current-layer="svg193"
     inkscape:window-maximized="0"
     inkscape:window-y="112"
     inkscape:window-x="184"
     inkscape:cy="332.66344"
     inkscape:cx="206.91774"
     inkscape:zoom="0.69916667"
     showgrid="false"
     id="namedview195"
     inkscape:window-height="830"
     inkscape:window-width="1467"
     inkscape:pageshadow="2"
     inkscape:pageopacity="0"
     guidetolerance="10"
     gridtolerance="10"
     objecttolerance="10"
     borderopacity="1"
     bordercolor="#666666"
     pagecolor="#ffffff" />
  <g
     transform="scale(3 3)"
     id="svga-group-wrapper">
    <g
       id="svga-group-backs-single">
      <path
         opacity="1"
         stroke-width="none"
         fill="#ecf0f1"
         d="M225 225H-25V-25h250V225z"
         id="SvgjsPath3566" />
    </g>
    <g
       transform="translate(0 -9.999999983634211e-8)"
       id="svga-group-subwrapper">
      <g
         id="svga-group-hair-back">
        <path
           stroke="none"
           opacity="1"
           stroke-width="none"
           fill="#c3ae94"
           d="M100.5,100.5h-1v-1h1V100.5z"
           id="SvgjsPath3582" />
      </g>
      <g
         id="svga-group-humanbody-single">
        <path
           stroke="none"
           opacity="1"
           stroke-width="none"
           fill="#ecc4b8"
           d="M195.417 199.778c-2.196-4.746-8.195-11.779-14.86-13.722 -8.239-2.403-26.837-5.308-33.733-6.923 -5.528-1.296-16.662-11.294-20.564-14.65 -0.7-0.6-1.273-1.839-1.287-2.76 -0.139-10.864 4.195-39.724 4.195-39.724H100 70.833c0 0 4.334 28.859 4.193 39.724 -0.011 0.921-0.587 2.16-1.285 2.76 -3.902 3.356-15.036 13.354-20.564 14.65 -6.897 1.615-25.495 4.619-33.733 7.022 -6.667 1.942-12.664 8.876-14.86 13.622 -3.708 8.008-4.584 22.5-4.584 35h100 100C200 222.278 199.123 207.786 195.417 199.778z"
           id="SvgjsPath2893" />
        <path
           stroke="none"
           opacity="1"
           stroke-width="none"
           fill="#fbe4dd"
           d="M159.156 184.058c24.342 3.542 34.586 8.708 37.794 50.721H200c0-12.5-0.877-26.992-4.583-35 -2.196-4.746-8.195-11.779-14.86-13.722 -8.239-2.403-26.837-5.308-33.733-6.923 -5.528-1.296-18.242-12.069-21.643-16.35 3.36 4.704 12.791 15.605 21.054 18.46C150.188 182.61 153.48 183.232 159.156 184.058zM53.766 181.244c8.263-2.854 17.693-13.756 21.054-18.46 -3.4 4.28-16.114 15.054-21.643 16.35 -6.896 1.615-25.494 4.619-33.733 7.022 -6.665 1.942-12.664 8.876-14.86 13.622 -3.706 8.008-4.583 22.5-4.583 35h3.05c3.188-41.744 13.475-47.183 37.794-50.721C46.52 183.232 49.813 182.61 53.766 181.244z"
           id="SvgjsPath2894" />
        <path
           stroke="none"
           opacity="1"
           stroke-width="none"
           fill="#dda696"
           d="M95.646 197.62c0 0-5.074-1.609-7.083-2.379 -10.449-4.009-44.395-6.607-44.395-6.607s35.754 1.419 43.644 2.779c-0.458-4.767-3.017-20.004-3.017-20.004s5.149 16.815 6.409 21.057C91.878 194.734 95.646 197.62 95.646 197.62zM106.445 196.278c-0.089 0.073-0.191 0.168-0.302 0.268C106.256 196.461 106.358 196.372 106.445 196.278zM95.646 197.62c0 0 2.893 2.992 4.347 3.03 1.91 0.051 4.828-2.899 6.151-4.104 -1.265 0.957-4.159 1.391-5.31 1.436C99.504 198.033 95.646 197.62 95.646 197.62zM116.664 190.101c-1.545 0.248-4.386 0.789-4.386 0.789l2.287-14.89c-0.646 3.071-4.474 16.211-8.12 20.278 1.91-1.616 6.158-2.391 8.324-2.704 10.236-1.484 10.232-1.483 41.062-4.94C155.831 188.634 126.76 188.479 116.664 190.101z"
           id="SvgjsPath2895" />
        <path
           opacity="1"
           stroke-width="1.5"
           stroke="#be725b"
           fill="none"
           d="M195.417 199.778c-2.196-4.746-8.195-11.779-14.86-13.722 -8.239-2.403-26.837-5.308-33.733-6.923 -5.528-1.296-16.662-11.294-20.564-14.65 -0.7-0.6-1.273-1.839-1.287-2.76 -0.139-10.864 4.195-39.724 4.195-39.724H100 70.833c0 0 4.334 28.859 4.193 39.724 -0.011 0.921-0.587 2.16-1.285 2.76 -3.902 3.356-15.036 13.354-20.564 14.65 -6.897 1.615-25.495 4.619-33.733 7.022 -6.667 1.942-12.664 8.876-14.86 13.622 -3.708 8.008-4.584 22.5-4.584 35h100 100C200 222.278 199.123 207.786 195.417 199.778z"
           id="SvgjsPath2896" />
      </g>
      <g
         id="svga-group-chinshadow-single">
        <path
           opacity="1"
           fill="url(#SvgjsLinearGradient3515)"
           d="M100.002 170.866c14.133 0 19-4.815 24.219-9.24 -0.068-6.741 1.494-19.936 2.735-29.278 -15.658-2.196-38.256-2.195-53.914 0 1.241 9.342 2.802 22.531 2.733 29.272C80.999 166.047 85.863 170.866 100.002 170.866z"
           id="SvgjsPath3514" />
      </g>
      <g
         id="svga-group-clothes-single">
        <path
           opacity="1"
           stroke-width="none"
           fill="#f5f4f5"
           d="M42.77 235.757l1.323-60.852c0 0 10.194-2.487 16.635-6.313 17.496 21.953 69.451 17.333 78.336-0.62 1.489 0.525 2.721 1.197 4.262 1.713 5 3.386 9.213 4.494 9.213 4.494l0.935 61.685C139.188 236.052 42.77 235.757 42.77 235.757z"
           id="SvgjsPath3568" />
        <path
           opacity="1"
           stroke-width="none"
           fill="#ffffff"
           d="M154.014 177.705c-4.236-0.719-7.611-1.697-9.452-3.544 -5.343 10.025-26.763 16.378-33.855 17.309 20.554-6.276 29.188-10.813 32.598-21.583 1.99 2.383 6.522 3.549 12.313 4.538L154.014 177.705zM52.67 174.381c1.454-0.312 2.18-1.234 3.623-1.593l-1.528-1.867c-3.114 2.234-8.971 3.305-15.9 4.424l0.188 3.738c3.956-0.79 7.817-1.788 11.429-3.323 7.483 8.485 19.168 12.659 31.06 14.387C66.624 186.562 58.07 180.511 52.67 174.381z"
           id="SvgjsPath3569" />
        <path
           opacity="1"
           stroke-width="none"
           fill="#dfdde2"
           d="M137.861 170.055c-5.929 11.361-50.74 24.595-76.009 0.866 -1.571 0.615-6.271 2.085-6.271 2.085 18.406 23.08 72.345 23.227 86.702-0.112C142.221 172.87 139.321 170.737 137.861 170.055z"
           id="SvgjsPath3570" />
        <path
           opacity="1"
           stroke-width="none"
           fill="#b8b6c9"
           d="M139.008 167.841c-10.087 18.575-62.578 21.204-78.239 0.625 -5.72 1.556-11.219 4.876-16.756 5.707l-1.243 61.584 110.703 0.107 -0.855-62.386c-3.369-0.707-6.501-2.737-9.254-3.894C141.842 168.945 140.55 168.37 139.008 167.841zM60.39 169.087c13.903 23.086 68.817 18.455 79.419 0.099 1.286 0.499 1.615 0.696 3.106 1.183 -10.982 21.208-65.306 27.967-87.525 1.147C55.546 171.476 58.823 169.629 60.39 169.087zM54.287 172.418c17.963 27.046 77.26 22.856 89.583-1.287 1.771 1.391 4.53 2.989 7.936 3.735l1.66 59.08 -110.377 0.016 1.904-58.299C47.777 174.264 52.247 173.232 54.287 172.418z"
           id="SvgjsPath3571" />
        <path
           opacity="1"
           stroke-width="none"
           fill="#3f82a4"
           d="M-4.529 235.566c-2.574-13.852-2.292-47.592 9.013-47.521 13.136-5.311 29.269-11.404 42.802-15.311 6.908-7.246 13.436-14.137 26.188-21.314 0.389 2.599 1.874 8.541 0.011 11.773 -1.355 2.352-5.783 5.576-9.554 8.368 -2.029 2.72-3.927 5.374-6.599 9.089 5.168 22.301 9.601 33.78 10.097 53.123 0 0-1.452 0.689 64.471 0.397 2.215-22.339 4.993-33.561 10.379-54.098 0 0-4.308-5.014-7.207-8.87 -2.054-1.997-8.36-7.532-8.84-8.651 -1.175-2.741-0.548-6.188 0.11-11.367 10.793 4.873 17 12.021 26.082 21.303 7.729 2.119 30.86 9.967 42.445 15.216 3.965-0.11 6.203 1.999 7.872 5.466 5.405 11.195 4.126 27.297 2.18 42.789C185.83 235.989 49.887 238.17-4.529 235.566z"
           id="SvgjsPath3572" />
        <path
           opacity="1"
           stroke-width="none"
           fill="#2a7195"
           d="M73.875 154.081c0.16 1.07 0.304 2.085 0.411 3.041 -0.218 0.266-17.212 23.353-17.336 23.525C61.126 171.148 67.1 161.305 73.875 154.081zM126.053 154.081c-0.159 1.07-0.184 2.085-0.291 3.041 0.218 0.266 16.931 22.469 17.054 22.642C138.391 170.914 132.828 161.305 126.053 154.081zM165.008 185.154c-4.28 6.231-5.194 8.382-9.879 14.557 1.071 0 2.799 0.166 3.87 0.166C162.663 193.592 162.67 190.393 165.008 185.154zM169.394 230.379c3.793-8.9 6.934-16.711 10.739-25.624l-1.247-2.014C175.717 211.896 172.354 221.199 169.394 230.379zM41.048 199.877c1.071 0 2.799-0.166 3.871-0.166 -4.685-6.175-5.599-6.561-9.878-12.792C37.377 192.158 37.384 193.592 41.048 199.877zM21.161 202.741l-1.247 2.014c3.806 8.913 4.765 16.724 8.559 25.624C25.512 221.199 24.33 211.896 21.161 202.741z"
           id="SvgjsPath3573" />
        <path
           opacity="1"
           stroke-width="none"
           fill="#196185"
           d="M65.638 169.283c1.181-1.646 5.237-7.272 8.601-12.561C75.227 162.179 73.413 165.416 65.638 169.283zM125.74 156.36c2.553 4.396 5.562 8.772 8.664 12.803C126 165.336 125.435 161.423 125.74 156.36z"
           id="SvgjsPath3574" />
        <path
           opacity="1"
           stroke-width="none"
           fill="#5794b3"
           d="M126.318 151.359c0.008-0.061 0.017-0.118 0.023-0.174 18.093 9.999 28.576 25.02 40.747 36.217 -0.448 0.721-1.228 1.193-1.687 1.905C152.656 179.609 146.599 164.946 126.318 151.359zM71.736 152.022c-15.034 8.213-36.242 33.357-38.318 35.269 0.448 0.724 0.691 0.577 1.15 1.288C47.314 178.882 50.793 169.283 71.736 152.022zM194.869 187.704c-1-0.799-24.646-10.039-42.59-14.969 33.698 16.299 45.587 18.545 51.471 24.321C203.367 196.057 202.586 187.489 194.869 187.704zM47.458 172.555c-13.524 3.914-30.839 10.098-42.975 15.491 -5.364 0.106-9.208 7.93-10.031 16.084C1.914 187.317-1.773 198.62 47.458 172.555z"
           id="SvgjsPath3575" />
        <path
           opacity="1"
           stroke-width="none"
           fill="#0a5276"
           d="M206.6 210.062c-0.34-8.635-3.055-23.103-11.691-22.46 -0.714-0.61-20.822-9.767-42.285-15.611 -7.353-7.455-16.515-17.598-26.371-20.957 -0.711 6.428-1.477 10.622 0.216 12.714 2.241 2.439 4.93 4.879 7.568 6.522 4.616 6.136 8.139 9.778 8.139 9.778 -5.43 20.703-8.815 31.314-10.973 53.688H68.798c-2.157-22.373-5.543-32.984-10.973-53.688 0 0 3.522-3.643 8.139-9.778 2.639-1.644 5.327-4.083 7.568-6.522 1.692-2.092 0.927-6.286 0.216-12.714 -9.856 3.359-19.019 13.502-26.371 20.957 -21.463 5.845-41.571 15.001-42.285 15.611 -8.637-0.643-11.352 13.825-11.691 22.46 -0.411 10.487 1.435 24.938 1.585 25.938h210.029C205.165 234.999 207.011 220.549 206.6 210.062zM72.984 163.194c-2.258 2.233-3.658 3.181-6.473 5.282 4.829-6.271 4.341-5.433 7.708-11.229C74.37 159.739 73.433 162.751 72.984 163.194zM-3.172 234.028c-1.082-12.844-2.916-24.41 0.43-36.992 1.281-4.827 2.484-8.095 7.455-8.509 1.067 5.538 8.132 28.724 14.298 44.533 -6.226-24.192-5.311-18.81-8.219-28.452 -0.964-3.235-1.854-6.486-2.979-9.672 -0.783-2.214-1.65-4.387-2.262-6.653l40.433-14.865c-0.279 0.283-12.895 13.434-13.199 13.804 1.847 3.021 7.816 7.222 10.845 11.758 -12.436 1.174-18.508 3.173-23 3.84 0.331 0.919 9.061 25.353 9.976 27.656 -1.479-7.917-4.816-20.297-8.637-27.211 1.41-0.179 18.077-2.492 23.393-3.477 -1.476-2.854-8.043-8.437-11.559-12.619 20.646-18.162 25.422-27.402 39.593-35.454 0.15 1.509 0.443 3.011 0.55 4.519 -15.795 23.533-17.649 23.567-17.649 23.567 4.585 17.81 10.532 35.824 10.532 54.073L-3.172 234.028zM127.016 163.194c-0.448-0.443-1.386-3.455-1.235-5.947 3.367 5.797 2.879 4.958 7.708 11.229C130.674 166.375 129.273 165.428 127.016 163.194zM203.172 234.028l-70-0.154c0-18.249 5.947-36.264 10.532-54.073 0 0-1.854-0.034-17.649-23.567 0.106-1.508 0.399-3.01 0.55-4.519 14.171 8.052 18.946 17.292 39.593 35.454 -3.516 4.183-10.083 9.766-11.559 12.619 5.315 0.984 21.982 3.298 23.393 3.477 -3.82 6.914-7.157 19.294-8.637 27.211 0.915-2.304 9.645-26.737 9.976-27.656 -4.492-0.667-10.564-2.666-23-3.84 3.028-4.536 8.998-8.736 10.845-11.758 -0.305-0.37-12.92-13.521-13.199-13.804 0.001 0 40.433 14.865 40.433 14.865 -0.611 2.267-1.479 4.439-2.262 6.653 -1.125 3.186-2.015 6.437-2.979 9.672 -2.908 9.643-1.993 4.26-8.219 28.452 6.166-15.81 13.23-38.995 14.298-44.533 4.971 0.414 6.174 3.682 7.455 8.509C206.088 209.618 204.254 221.185 203.172 234.028z"
           id="SvgjsPath3576" />
      </g>
      <g
         id="svga-group-head">
        <g
           id="svga-group-ears-left">
          <path
             opacity="1"
             stroke-width="1.5"
             stroke="#be725b"
             fill="#ecc4b8"
             d="M47.218 81.505c-0.967-2.487-8.082-6.002-11.21-5.447 -3.538 0.627-4.838 4.356-4.369 7.119 1.103 6.487 3.996 9.219 5.296 14.286 1.096 4.273 3.433 6.732 4.588 8.548 1.42 2.228 2.73 7.341 3.023 8.087 0.463 1.18 2.103 4.043 5.002 3.896 3.333-0.172 7.545-6.688 7.614-8.135C57.544 102.009 49.733 87.979 47.218 81.505z"
             id="SvgjsPath3587" />
          <path
             stroke="none"
             opacity="1"
             stroke-width="none"
             fill="#be725b"
             d="M47.953 107.96c0 0 0.429-1.071-0.094-2.022 -0.672-1.223-2.423-3.468-2.821-4.811 -0.325-1.098-0.16-3.445-0.213-4.593 -0.094-2.03-1.492-3.42-1.927-4.585 -2.914-7.793-6.792-12.623-9-13.626 -1.633 3.989-0.339 6.907 1.94 13.045 -1.375-8.342-0.054-10.95-0.054-10.95s4.018 3.465 6.001 11.172c0.359 1.391-1.111 4.294-0.83 5.705 0.352 1.772 4.184 5.201 5.257 6.635C47.049 105.047 47.953 107.96 47.953 107.96z"
             id="SvgjsPath3588" />
        </g>
        <g
           id="svga-group-ears-right">
          <path
             opacity="1"
             stroke-width="1.5"
             stroke="#be725b"
             fill="#ecc4b8"
             d="M152.52 81.505c0.967-2.487 8.082-6.002 11.211-5.447 3.539 0.627 4.838 4.356 4.369 7.119 -1.104 6.487-3.996 9.219-5.297 14.286 -1.096 4.273-3.434 6.732-4.588 8.548 -1.42 2.228-2.73 7.341-3.023 8.087 -0.463 1.18-2.104 4.043-5.002 3.896 -3.332-0.172-7.545-6.688-7.613-8.135C142.193 102.009 150.006 87.979 152.52 81.505z"
             id="SvgjsPath3589" />
          <path
             stroke="none"
             opacity="1"
             stroke-width="none"
             fill="#be725b"
             d="M151.785 107.96c0 0-0.43-1.071 0.094-2.022 0.672-1.223 2.424-3.468 2.82-4.811 0.324-1.098 0.16-3.445 0.215-4.593 0.094-2.03 1.49-3.42 1.926-4.585 2.914-7.793 6.793-12.623 9-13.626 1.633 3.989 0.338 6.907-1.939 13.045 1.375-8.342 0.053-10.95 0.053-10.95s-4.018 3.465-6.002 11.172c-0.357 1.391 1.111 4.294 0.83 5.705 -0.352 1.772-4.184 5.201-5.256 6.635C152.689 105.047 151.785 107.96 151.785 107.96z"
             id="SvgjsPath3590" />
        </g>
        <g
           id="svga-group-faceshape-wrap">
          <g
             id="svga-group-faceshape-single">
            <path
               stroke="none"
               opacity="1"
               stroke-width="none"
               fill="#ecc4b8"
               d="M100.002 0.867C66.384 0.921 39.082 28.71 39.134 62.948c0.008 5.438 0.704 10.709 2.002 15.733h0.001c0.012 0.054 11.542 38.834 14.02 51.571 1.382 7.104 9.796 13.505 17.265 18.729 6.967 4.876 10.529 11.885 27.58 11.885s20.613-7.009 27.58-11.885c7.468-5.225 15.883-11.625 17.265-18.729 2.479-12.737 14.009-51.518 14.02-51.571h0.002c1.298-5.023 1.994-10.295 2.002-15.733C160.923 28.71 133.62 0.921 100.002 0.867z"
               id="SvgjsPath3511" />
            <path
               stroke="none"
               opacity="1"
               stroke-width="none"
               fill="#e4b5a7"
               d="M146.772 23.236c7.478 10.415 11.917 23.391 11.898 37.461 -0.009 5.438-0.679 10.709-1.93 15.733h-0.002c-0.011 0.054-11.124 38.833-13.512 51.572 -1.335 7.104-9.471 13.505-16.668 18.729 -6.718 4.875-10.121 11.886-26.557 11.886 -16.434 0-19.842-7.011-26.557-11.886 -7.197-5.225-15.335-11.625-16.665-18.729C54.39 115.264 43.277 76.484 43.266 76.43h0c-1.252-5.023-1.922-10.295-1.931-15.733C41.314 46.631 45.75 33.66 53.224 23.247 44.412 34.011 39.111 47.85 39.134 62.948c0.008 5.438 0.704 10.709 2.002 15.733h0.001c0.012 0.054 11.542 38.834 14.02 51.571 1.382 7.104 9.796 13.505 17.265 18.729 6.967 4.876 10.529 11.885 27.58 11.885s20.613-7.009 27.58-11.885c7.468-5.225 15.883-11.625 17.265-18.729 2.479-12.737 14.009-51.518 14.02-51.571h0.002c1.298-5.023 1.994-10.295 2.002-15.733C160.894 47.846 155.589 34.002 146.772 23.236z"
               id="SvgjsPath3512" />
            <path
               opacity="1"
               stroke-width="1.5"
               stroke="#be725b"
               fill="none"
               d="M100.002 0.867C66.384 0.921 39.082 28.71 39.134 62.948c0.008 5.438 0.704 10.709 2.002 15.733h0.001c0.012 0.054 11.542 38.834 14.02 51.571 1.382 7.104 9.796 13.505 17.265 18.729 6.967 4.876 10.529 11.885 27.58 11.885s20.613-7.009 27.58-11.885c7.468-5.225 15.883-11.625 17.265-18.729 2.479-12.737 14.009-51.518 14.02-51.571h0.002c1.298-5.023 1.994-10.295 2.002-15.733C160.923 28.71 133.62 0.921 100.002 0.867z"
               id="SvgjsPath3513" />
          </g>
        </g>
        <g
           id="svga-group-mouth-single">
          <path
             opacity="1"
             fill="url(#SvgjsLinearGradient3624)"
             d="M99.825 142.068c-3.24 0-4.753-2.802-4.753-2.802s4.797 0.781 9.279-0.064C104.352 139.202 102.675 142.068 99.825 142.068z"
             id="SvgjsPath3623" />
          <path
             stroke="none"
             opacity="1"
             stroke-width="none"
             fill="#be725b"
             d="M95.211 139.349c-0.132-0.039-0.23-0.149-0.208-0.285 0.021-0.137 0.151-0.224 0.286-0.209 3.612 0.857 5.963 0.661 8.766-0.043 0.145-0.035 0.27 0.062 0.297 0.195s-0.063 0.256-0.193 0.296C101.098 140.207 98.142 140.241 95.211 139.349zM85.447 133.958c0.313-0.144 0.582-0.086 1.073-0.115 1.419-0.249 3.128-0.323 4.54-0.611 1.348-0.274 2.774-0.662 4.158-0.597 1.488 0.071 2.879 0.669 4.353 0.829 1.401 0.151 2.708-0.229 4.053-0.557 1.542-0.376 3.01-0.287 4.56 0.006 1.938 0.363 3.774 0.857 5.689 1.038 0.582 0.055 0.365 0.413 0.032 0.454 -1.713 0.205-3.431-0.068-5.194-0.249 -1.425-0.146-2.868-0.329-4.274 0.021 -1.518 0.379-3.437 0.822-4.605 0.808 -1.3-0.017-2.521-0.538-3.784-0.807 -1.551-0.327-3.091-0.02-4.647 0.143 -1.938 0.201-3.672 0.34-5.579 0.047C85.312 134.29 85.306 134.023 85.447 133.958z"
             id="SvgjsPath3627" />
        </g>
        <g
           id="svga-group-eyes-left">
          <g
             id="svga-group-eyesback-left">
            <path
               opacity="1"
               fill="url(#SvgjsRadialGradient4199)"
               d="M83.071 89.125c-3.293-0.784-4.969 1.059-9.809 1.166 -8.057 0.177-9.938-0.618-11.199-2.638 -0.523-0.837-1.023-1.928-1.264-2.601l-0.1-4.149c1.328-3.949 19.541-4.352 25.9 1.784 0.287 0.666 0.433 1.287 0.465 1.867 -0.19 0.958-0.512 1.878-0.947 2.749C85.411 88.113 84.355 88.729 83.071 89.125z"
               id="SvgjsPath4198" />
          </g>
          <g
             transform="translate(0.25 0.25)"
             id="svga-group-eyesiriswrapper-left">
            <g
               id="svga-group-eyesiriscontrol-left">
              <g
                 id="svga-group-eyesiris-left">
                <path
                   opacity="1"
                   stroke-width="none"
                   fill="#4e60a3"
                   d="M80 84c0 3.313-2.687 6-6 6 -3.313 0-6-2.687-6-6l0 0c0-3.314 2.687-6 6-6C77.313 77.999 80 80.686 80 84L80 84z"
                   id="SvgjsPath2926" />
                <path
                   opacity="0.7"
                   fill="url(#SvgjsRadialGradient2928)"
                   d="M73.328 78.066c-0.023 0.003-0.047 0.006-0.071 0.009 0.029 0.135 0.057 0.271 0.085 0.406C73.336 78.344 73.333 78.204 73.328 78.066zM73.341 78.48c0.07 1.972 0.185 3.729 0.517 4.364C74.033 82.148 73.735 80.414 73.341 78.48zM73.859 82.845c-0.043 0.167-0.108 0.281-0.208 0.319 -0.1 0.038-0.226-0.006-0.368-0.103 0.041 0.167 0.037 0.297-0.036 0.378 -0.072 0.081-0.201 0.101-0.373 0.078 0.113 0.13 0.171 0.249 0.146 0.353 -0.027 0.104-0.134 0.182-0.293 0.242 0.159 0.063 0.266 0.141 0.291 0.245 0.025 0.104-0.033 0.223-0.145 0.352 0.17-0.021 0.301 0.001 0.371 0.082 0.071 0.081 0.075 0.212 0.035 0.379 0.141-0.097 0.265-0.139 0.365-0.1 0.101 0.038 0.166 0.152 0.206 0.32 0.081-0.152 0.171-0.249 0.28-0.26 0.104-0.014 0.216 0.059 0.329 0.188 0.001-0.172 0.037-0.299 0.127-0.36 0.088-0.061 0.219-0.049 0.379 0.013 -0.078-0.152-0.105-0.281-0.055-0.377 0.05-0.095 0.173-0.146 0.344-0.166 -0.141-0.099-0.227-0.2-0.225-0.308 0-0.108 0.084-0.209 0.227-0.306 -0.17-0.021-0.291-0.072-0.342-0.167 -0.049-0.095-0.022-0.225 0.058-0.377 -0.162 0.06-0.292 0.072-0.38 0.011 -0.089-0.061-0.125-0.188-0.125-0.36 -0.112 0.128-0.224 0.199-0.33 0.185C74.029 83.092 73.938 82.998 73.859 82.845zM74.466 82.92c0.479-0.535 1.021-2.209 1.57-4.104C75.182 80.593 74.467 82.202 74.466 82.92zM76.035 78.816c0.06-0.122 0.121-0.246 0.178-0.37 -0.021-0.007-0.042-0.017-0.063-0.026C76.112 78.553 76.074 78.686 76.035 78.816zM74.972 83.27c0.672-0.252 1.931-1.483 3.297-2.905C76.688 81.541 75.306 82.634 74.972 83.27zM78.269 80.365c0.1-0.075 0.203-0.15 0.305-0.225 -0.014-0.018-0.03-0.033-0.042-0.049C78.445 80.181 78.358 80.274 78.269 80.365zM75.254 83.814c0.713 0.088 2.4-0.417 4.272-1.041C77.578 83.081 75.848 83.406 75.254 83.814zM79.526 82.774c0.11-0.016 0.225-0.034 0.337-0.052 -0.004-0.019-0.009-0.038-0.014-0.057C79.742 82.701 79.632 82.738 79.526 82.774zM75.253 84.427c0.59 0.412 2.318 0.747 4.262 1.063C77.65 84.857 75.967 84.342 75.253 84.427zM79.516 85.49c0.095 0.033 0.191 0.067 0.285 0.098 0.005-0.017 0.009-0.033 0.012-0.05C79.716 85.523 79.615 85.507 79.516 85.49zM74.965 84.97c0.333 0.637 1.708 1.738 3.282 2.924C76.888 86.464 75.638 85.226 74.965 84.97zM78.248 87.892c0.059 0.062 0.12 0.126 0.179 0.189 0.01-0.012 0.019-0.021 0.03-0.032C78.387 87.997 78.315 87.944 78.248 87.892zM74.46 85.317c-0.003 0.719 0.703 2.331 1.547 4.113C75.468 87.533 74.937 85.855 74.46 85.317zM76.007 89.431c0.021 0.075 0.043 0.152 0.063 0.229 0.015-0.006 0.025-0.01 0.039-0.014C76.076 89.574 76.041 89.5 76.007 89.431zM73.851 85.389c-0.336 0.637-0.461 2.39-0.542 4.361C73.713 87.82 74.022 86.087 73.851 85.389zM73.309 89.75c-0.017 0.075-0.031 0.151-0.047 0.228 0.014 0.003 0.025 0.003 0.039 0.005C73.303 89.906 73.307 89.826 73.309 89.75zM73.28 85.169c-0.596 0.407-1.521 1.904-2.508 3.61C72.026 87.259 73.106 85.867 73.28 85.169zM70.772 88.779c-0.053 0.063-0.108 0.13-0.162 0.193 0.013 0.008 0.024 0.014 0.038 0.024C70.688 88.924 70.731 88.851 70.772 88.779zM72.875 84.71c-0.716 0.083-2.231 0.978-3.898 2.029C70.795 85.977 72.395 85.248 72.875 84.71zM68.976 86.741c-0.086 0.036-0.174 0.072-0.263 0.11 0.006 0.013 0.015 0.027 0.023 0.04C68.817 86.842 68.897 86.791 68.976 86.741zM72.728 84.113c-0.671-0.257-2.429-0.168-4.395-0.011C70.297 84.27 72.055 84.367 72.728 84.113zM68.333 84.102c-0.107-0.01-0.217-0.02-0.323-0.029 0 0.019-0.002 0.038 0 0.056C68.119 84.119 68.228 84.11 68.333 84.102zM72.875 83.519c-0.473-0.539-2.069-1.277-3.881-2.051C70.653 82.528 72.163 83.432 72.875 83.519zM68.994 81.468c-0.104-0.067-0.209-0.134-0.315-0.201 -0.009 0.019-0.019 0.038-0.029 0.055C68.766 81.371 68.882 81.419 68.994 81.468zM73.284 83.061c-0.169-0.698-1.241-2.094-2.485-3.623C71.775 81.15 72.692 82.651 73.284 83.061zM70.799 79.438c-0.067-0.115-0.132-0.232-0.199-0.349 -0.019 0.013-0.039 0.026-0.056 0.039C70.628 79.231 70.716 79.335 70.799 79.438z"
                   id="SvgjsPath2927" />
                <path
                   opacity="0.4"
                   fill="url(#SvgjsRadialGradient2932)"
                   d="M74.886 78.086c-0.024-0.003-0.047-0.007-0.07-0.01 -0.007 0.138-0.016 0.277-0.024 0.414C74.822 78.356 74.855 78.22 74.886 78.086zM74.791 78.489c-0.442 1.922-0.787 3.649-0.629 4.35C74.511 82.211 74.671 80.459 74.791 78.489zM74.161 82.839c-0.084 0.15-0.176 0.243-0.283 0.254 -0.106 0.01-0.216-0.064-0.327-0.195 -0.004 0.171-0.042 0.297-0.133 0.356 -0.09 0.059-0.221 0.045-0.38-0.021 0.076 0.155 0.101 0.285 0.049 0.378 -0.053 0.094-0.176 0.142-0.345 0.158 0.137 0.101 0.22 0.204 0.217 0.312 -0.002 0.107-0.089 0.207-0.231 0.302 0.169 0.024 0.29 0.079 0.337 0.174 0.048 0.096 0.018 0.225-0.064 0.375 0.161-0.057 0.292-0.065 0.379-0.002 0.087 0.063 0.12 0.19 0.116 0.363 0.117-0.125 0.229-0.196 0.337-0.179 0.105 0.014 0.194 0.113 0.27 0.268 0.045-0.167 0.113-0.279 0.216-0.315 0.101-0.036 0.225 0.01 0.363 0.111 -0.036-0.167-0.029-0.299 0.044-0.378 0.073-0.079 0.205-0.096 0.376-0.072 -0.111-0.132-0.168-0.251-0.138-0.355 0.028-0.104 0.136-0.18 0.299-0.237 -0.16-0.064-0.263-0.145-0.288-0.25 -0.023-0.105 0.037-0.223 0.154-0.349 -0.172 0.016-0.301-0.006-0.37-0.088 -0.07-0.082-0.072-0.214-0.028-0.379 -0.142 0.094-0.268 0.134-0.367 0.093C74.261 83.122 74.199 83.007 74.161 82.839zM74.729 83.07c0.601-0.394 1.557-1.871 2.578-3.558C76.022 81.007 74.916 82.375 74.729 83.07zM77.307 79.511c0.089-0.102 0.18-0.206 0.268-0.311 -0.019-0.013-0.036-0.028-0.055-0.042C77.449 79.277 77.378 79.396 77.307 79.511zM75.127 83.538c0.715-0.07 2.25-0.934 3.937-1.953C77.231 82.312 75.614 83.01 75.127 83.538zM79.063 81.584c0.117-0.046 0.235-0.092 0.354-0.138 -0.01-0.021-0.021-0.04-0.028-0.059C79.281 81.453 79.173 81.52 79.063 81.584zM75.259 84.137c0.666 0.27 2.426 0.218 4.395 0.101C77.693 84.03 75.938 83.896 75.259 84.137zM79.654 84.237c0.112 0.013 0.226 0.025 0.339 0.037 0-0.02 0.001-0.039 0.002-0.058C79.881 84.223 79.766 84.23 79.654 84.237zM75.1 84.729c0.462 0.551 2.046 1.321 3.842 2.129C77.303 85.763 75.811 84.831 75.1 84.729zM78.941 86.858c0.083 0.057 0.167 0.114 0.25 0.168 0.009-0.015 0.017-0.03 0.025-0.045C79.126 86.942 79.032 86.9 78.941 86.858zM74.68 85.179c0.156 0.701 1.2 2.12 2.414 3.674C76.151 87.119 75.264 85.599 74.68 85.179zM77.094 88.85c0.042 0.075 0.083 0.153 0.125 0.229 0.012-0.009 0.024-0.016 0.037-0.024C77.202 88.987 77.147 88.917 77.094 88.85zM74.103 85.383c-0.188 0.693 0.076 2.433 0.43 4.373C74.502 87.784 74.424 86.026 74.103 85.383zM74.532 89.756c0.001 0.078 0.003 0.158 0.003 0.238 0.014-0.002 0.027-0.004 0.041-0.004C74.562 89.913 74.547 89.833 74.532 89.756zM73.496 85.294c-0.49 0.528-1.064 2.189-1.652 4.072C72.733 87.607 73.481 86.013 73.496 85.294zM71.843 89.366c-0.035 0.068-0.07 0.138-0.104 0.208 0.012 0.006 0.023 0.009 0.036 0.015C71.797 89.516 71.821 89.439 71.843 89.366zM73 84.934c-0.68 0.239-1.962 1.446-3.357 2.838C71.25 86.628 72.652 85.563 73 84.934zM69.644 87.772c-0.067 0.047-0.137 0.098-0.205 0.145 0.01 0.011 0.02 0.02 0.029 0.032C69.525 87.89 69.585 87.832 69.644 87.772zM72.728 84.385c-0.713-0.104-2.407 0.368-4.291 0.952C70.392 85.071 72.125 84.781 72.728 84.385zM68.437 85.339c-0.092 0.013-0.187 0.024-0.283 0.039 0.003 0.015 0.008 0.03 0.013 0.044C68.258 85.396 68.348 85.366 68.437 85.339zM72.741 83.772c-0.582-0.423-2.303-0.792-4.242-1.149C70.353 83.294 72.025 83.843 72.741 83.772zM68.499 82.623c-0.101-0.037-0.205-0.075-0.305-0.112 -0.005 0.019-0.011 0.037-0.015 0.054C68.288 82.584 68.395 82.604 68.499 82.623zM73.038 83.235c-0.318-0.643-1.668-1.769-3.219-2.986C71.147 81.704 72.372 82.968 73.038 83.235zM69.818 80.25c-0.083-0.091-0.167-0.183-0.251-0.275 -0.014 0.016-0.029 0.031-0.042 0.046C69.624 80.097 69.723 80.173 69.818 80.25zM73.551 82.899c0.017-0.718-0.656-2.344-1.464-4.142C72.587 80.663 73.085 82.35 73.551 82.899zM72.087 78.757c-0.034-0.128-0.067-0.259-0.101-0.389 -0.021 0.007-0.043 0.015-0.063 0.023C71.977 78.513 72.033 78.636 72.087 78.757z"
                   id="SvgjsPath2931" />
                <path
                   opacity="1"
                   stroke-width="none"
                   fill="#4e60a3"
                   d="M76.354 84c0 1.3-1.053 2.353-2.353 2.353 -1.299 0-2.354-1.053-2.354-2.353 0-1.299 1.055-2.354 2.354-2.354C75.301 81.646 76.354 82.7 76.354 84z"
                   id="SvgjsPath2935" />
                <path
                   opacity="0.9"
                   stroke-width="none"
                   fill="#000000"
                   d="M76.354 84c0 1.3-1.053 2.353-2.353 2.353 -1.299 0-2.354-1.053-2.354-2.353 0-1.299 1.055-2.354 2.354-2.354C75.301 81.646 76.354 82.7 76.354 84z"
                   id="SvgjsPath2936" />
                <path
                   opacity="0.5"
                   fill="url(#SvgjsLinearGradient2938)"
                   d="M70.717 86.748c0.449-0.302 1.059-0.18 1.36 0.268 0.301 0.449 0.182 1.059-0.268 1.36 -0.45 0.303-1.059 0.183-1.36-0.267C70.148 87.66 70.268 87.049 70.717 86.748L70.717 86.748z"
                   id="SvgjsPath2937" />
                <path
                   opacity="0.5"
                   fill="url(#SvgjsLinearGradient2942)"
                   d="M75.86 83.672c-0.251 0.374-0.969 0.331-1.606-0.096 -0.638-0.427-0.95-1.078-0.7-1.451l0-0.001c0.25-0.374 0.969-0.331 1.605 0.097C75.798 82.647 76.11 83.297 75.86 83.672 75.86 83.672 75.86 83.672 75.86 83.672z"
                   id="SvgjsPath2941" />
                <path
                   opacity="0.75"
                   fill="url(#SvgjsLinearGradient2946)"
                   d="M78.716 82.673c-0.568 0.873-2.036 0.925-3.275 0.117 -1.24-0.808-1.784-2.17-1.215-3.043 0.568-0.872 2.036-0.924 3.275-0.117C78.74 80.439 79.284 81.802 78.716 82.673L78.716 82.673z"
                   id="SvgjsPath2945" />
              </g>
            </g>
          </g>
          <g
             id="svga-group-eyesfront-left">
            <path
               opacity="1"
               stroke-width="none"
               fill="#ecc4b8"
               d="M53.729 84.098c-0.382 3.304 9.854 22.004 20.071 22.004s19.5-5.292 19.5-22.003c0-17.789-9.283-22.001-19.5-22.001S55.626 67.704 53.729 84.098zM60.8 85.053l-0.1-4.149c1.328-3.949 19.541-4.352 25.9 1.784 1.396 3.231-0.409 5.477-3.529 6.438 -3.293-0.784-4.969 1.059-9.809 1.166 -8.057 0.177-9.938-0.618-11.199-2.638C61.54 86.816 61.04 85.726 60.8 85.053z"
               id="SvgjsPath4223" />
            <path
               opacity="1"
               fill="url(#SvgjsRadialGradient4225)"
               d="M59.698 82.412c0.023 7.534 7.646 13.604 17.038 13.566 9.389-0.043 16.985-6.179 16.961-13.713 -0.023-7.533-7.647-13.605-17.04-13.566C67.265 68.743 59.673 74.878 59.698 82.412zM60.8 85.053l-0.1-4.149c1.328-3.949 19.541-4.352 25.9 1.784 1.396 3.231-0.409 5.477-3.529 6.438 -3.293-0.784-4.969 1.059-9.809 1.166 -8.057 0.177-9.938-0.618-11.199-2.638C61.54 86.816 61.04 85.726 60.8 85.053z"
               id="SvgjsPath4224" />
            <path
               opacity="1"
               fill="url(#SvgjsRadialGradient4230)"
               d="M62.063 87.654c-0.523-0.837-1.023-1.928-1.264-2.601l-0.1-4.149c1.328-3.949 19.541-4.352 25.9 1.784 1.396 3.231-0.409 5.477-3.529 6.438 -3.293-0.784-4.969 1.059-9.809 1.166C65.206 90.469 63.324 89.673 62.063 87.654z"
               id="SvgjsPath4229" />
            <path
               opacity="1"
               stroke-width="none"
               fill="#be725b"
               d="M89.465 81.193c-9.617-5.761-16.701-6.128-28.117-5.394C70.877 74.298 81.852 75.387 89.465 81.193z"
               id="SvgjsPath4233" />
            <path
               opacity="1"
               stroke-width="none"
               fill="#000000"
               d="M88.23 85.283c-3.24-8.315-25.943-8.364-27.431-4.181v3.895c-1.021-1.539-1.047-1.633-1.483-3.404l-2.195 0.746c0 0 2.746-3.873 5.299-4.381C84.606 73.539 88.04 83.949 88.23 85.283zM84.743 89.42c-4.625-1.98-5.94 0.378-11.563 0.495 -8.004 0.168-9.567-0.766-11.125-2.476 0.813 2.091 1.375 3.085 10.875 3.027C78.306 90.433 81.243 88.212 84.743 89.42z"
               id="SvgjsPath4234" />
          </g>
        </g>
        <g
           id="svga-group-eyes-right">
          <g
             id="svga-group-eyesback-right">
            <path
               opacity="1"
               fill="url(#SvgjsRadialGradient4207)"
               d="M116.529 89.125c3.293-0.784 4.969 1.059 9.809 1.166 8.057 0.177 9.938-0.618 11.199-2.638 0.523-0.837 1.023-1.928 1.264-2.601l0.1-4.149c-1.328-3.949-19.541-4.352-25.9 1.784 -0.287 0.666-0.433 1.287-0.465 1.867 0.19 0.958 0.512 1.878 0.947 2.749C114.189 88.113 115.245 88.729 116.529 89.125z"
               id="SvgjsPath4206" />
          </g>
          <g
             transform="translate(-0.25 0.25)"
             id="svga-group-eyesiriswrapper-right">
            <g
               id="svga-group-eyesiriscontrol-right">
              <g
                 id="svga-group-eyesiris-right">
                <path
                   opacity="1"
                   stroke-width="none"
                   fill="#4e60a3"
                   d="M132 84c0 3.313-2.687 6-5.999 6 -3.313 0-6.001-2.687-6.001-6l0 0c0-3.314 2.688-6 6.001-6C129.313 77.999 132 80.686 132 84L132 84z"
                   id="SvgjsPath2949" />
                <path
                   opacity="0.7"
                   fill="url(#SvgjsRadialGradient2951)"
                   d="M125.328 78.066c-0.023 0.003-0.047 0.006-0.071 0.009 0.029 0.135 0.058 0.271 0.085 0.406C125.336 78.344 125.333 78.204 125.328 78.066zM125.341 78.48c0.069 1.972 0.185 3.729 0.518 4.364C126.033 82.148 125.735 80.414 125.341 78.48zM125.858 82.845c-0.042 0.167-0.108 0.281-0.207 0.319 -0.101 0.038-0.226-0.006-0.367-0.103 0.04 0.167 0.036 0.297-0.036 0.378 -0.072 0.081-0.201 0.101-0.372 0.078 0.112 0.13 0.171 0.249 0.146 0.353 -0.028 0.104-0.134 0.182-0.293 0.242 0.158 0.063 0.265 0.141 0.29 0.245 0.025 0.104-0.032 0.223-0.145 0.352 0.17-0.021 0.3 0.001 0.37 0.082 0.071 0.081 0.075 0.212 0.035 0.379 0.141-0.097 0.266-0.139 0.365-0.1 0.102 0.038 0.166 0.152 0.206 0.32 0.08-0.152 0.172-0.249 0.279-0.26 0.105-0.014 0.217 0.059 0.329 0.188 0.002-0.172 0.037-0.299 0.128-0.36 0.087-0.061 0.219-0.049 0.379 0.013 -0.078-0.152-0.104-0.281-0.056-0.377 0.051-0.095 0.174-0.146 0.345-0.166 -0.141-0.099-0.228-0.2-0.225-0.308 -0.001-0.108 0.084-0.209 0.227-0.306 -0.171-0.021-0.291-0.072-0.342-0.167 -0.05-0.095-0.022-0.225 0.057-0.377 -0.161 0.06-0.291 0.072-0.38 0.011s-0.124-0.188-0.125-0.36c-0.111 0.128-0.224 0.199-0.33 0.185C126.029 83.092 125.938 82.998 125.858 82.845zM126.466 82.92c0.479-0.535 1.021-2.209 1.569-4.104C127.182 80.593 126.468 82.202 126.466 82.92zM128.035 78.816c0.06-0.122 0.121-0.246 0.179-0.37 -0.021-0.007-0.042-0.017-0.063-0.026C128.112 78.553 128.074 78.686 128.035 78.816zM126.972 83.27c0.673-0.252 1.932-1.483 3.298-2.905C128.688 81.541 127.307 82.634 126.972 83.27zM130.27 80.365c0.1-0.075 0.202-0.15 0.305-0.225 -0.015-0.018-0.03-0.033-0.042-0.049C130.445 80.181 130.358 80.274 130.27 80.365zM127.255 83.814c0.713 0.088 2.399-0.417 4.271-1.041C129.578 83.081 127.848 83.406 127.255 83.814zM131.526 82.774c0.11-0.016 0.225-0.034 0.337-0.052 -0.005-0.019-0.009-0.038-0.014-0.057C131.742 82.701 131.632 82.738 131.526 82.774zM127.253 84.427c0.591 0.412 2.318 0.747 4.263 1.063C129.65 84.857 127.967 84.342 127.253 84.427zM131.516 85.49c0.095 0.033 0.19 0.067 0.285 0.098 0.005-0.017 0.009-0.033 0.013-0.05C131.716 85.523 131.614 85.507 131.516 85.49zM126.965 84.97c0.332 0.637 1.708 1.738 3.282 2.924C128.889 86.464 127.638 85.226 126.965 84.97zM130.248 87.892c0.059 0.062 0.119 0.126 0.178 0.189 0.01-0.012 0.02-0.021 0.031-0.032C130.387 87.997 130.315 87.944 130.248 87.892zM126.461 85.317c-0.003 0.719 0.702 2.331 1.547 4.113C127.468 87.533 126.937 85.855 126.461 85.317zM128.008 89.431c0.021 0.075 0.043 0.152 0.063 0.229 0.015-0.006 0.026-0.01 0.039-0.014C128.076 89.574 128.041 89.5 128.008 89.431zM125.851 85.389c-0.336 0.637-0.461 2.39-0.542 4.361C125.713 87.82 126.022 86.087 125.851 85.389zM125.309 89.75c-0.017 0.075-0.031 0.151-0.047 0.228 0.014 0.003 0.024 0.003 0.039 0.005C125.303 89.906 125.307 89.826 125.309 89.75zM125.279 85.169c-0.596 0.407-1.521 1.904-2.508 3.61C124.026 87.259 125.105 85.867 125.279 85.169zM122.771 88.779c-0.052 0.063-0.107 0.13-0.161 0.193 0.013 0.008 0.024 0.014 0.037 0.024C122.688 88.924 122.731 88.851 122.771 88.779zM124.874 84.71c-0.716 0.083-2.23 0.978-3.897 2.029C122.795 85.977 124.395 85.248 124.874 84.71zM120.977 86.741c-0.087 0.036-0.175 0.072-0.263 0.11 0.006 0.013 0.014 0.027 0.023 0.04C120.817 86.842 120.897 86.791 120.977 86.741zM124.729 84.113c-0.672-0.257-2.43-0.168-4.396-0.011C122.298 84.27 124.055 84.367 124.729 84.113zM120.333 84.102c-0.106-0.01-0.217-0.02-0.322-0.029 -0.001 0.019-0.003 0.038-0.001 0.056C120.119 84.119 120.228 84.11 120.333 84.102zM124.876 83.519c-0.474-0.539-2.069-1.277-3.882-2.051C122.653 82.528 124.163 83.432 124.876 83.519zM120.994 81.468c-0.104-0.067-0.21-0.134-0.315-0.201 -0.009 0.019-0.019 0.038-0.028 0.055C120.766 81.371 120.883 81.419 120.994 81.468zM125.284 83.061c-0.169-0.698-1.241-2.094-2.485-3.623C123.775 81.15 124.692 82.651 125.284 83.061zM122.799 79.438c-0.067-0.115-0.133-0.232-0.198-0.349 -0.019 0.013-0.039 0.026-0.057 0.039C122.629 79.231 122.716 79.335 122.799 79.438z"
                   id="SvgjsPath2950" />
                <path
                   opacity="0.4"
                   fill="url(#SvgjsRadialGradient2955)"
                   d="M126.886 78.086c-0.024-0.003-0.047-0.007-0.07-0.01 -0.008 0.138-0.016 0.277-0.024 0.414C126.821 78.356 126.854 78.22 126.886 78.086zM126.791 78.489c-0.443 1.922-0.787 3.649-0.63 4.35C126.511 82.211 126.671 80.459 126.791 78.489zM126.161 82.839c-0.084 0.15-0.177 0.243-0.283 0.254 -0.106 0.01-0.216-0.064-0.327-0.195 -0.004 0.171-0.042 0.297-0.133 0.356 -0.09 0.059-0.221 0.045-0.38-0.021 0.075 0.155 0.101 0.285 0.049 0.378 -0.054 0.094-0.176 0.142-0.346 0.158 0.138 0.101 0.22 0.204 0.217 0.312 -0.002 0.107-0.089 0.207-0.23 0.302 0.17 0.024 0.289 0.079 0.337 0.174 0.048 0.096 0.018 0.225-0.064 0.375 0.162-0.057 0.293-0.065 0.38-0.002 0.087 0.063 0.12 0.19 0.115 0.363 0.117-0.125 0.229-0.196 0.337-0.179 0.105 0.014 0.194 0.113 0.27 0.268 0.046-0.167 0.113-0.279 0.216-0.315 0.101-0.036 0.226 0.01 0.363 0.111 -0.035-0.167-0.028-0.299 0.045-0.378 0.072-0.079 0.204-0.096 0.375-0.072 -0.11-0.132-0.168-0.251-0.138-0.355 0.027-0.104 0.136-0.18 0.299-0.237 -0.159-0.064-0.263-0.145-0.288-0.25 -0.022-0.105 0.038-0.223 0.154-0.349 -0.172 0.016-0.302-0.006-0.37-0.088 -0.07-0.082-0.072-0.214-0.027-0.379 -0.143 0.094-0.269 0.134-0.368 0.093C126.262 83.122 126.198 83.007 126.161 82.839zM126.729 83.07c0.601-0.394 1.557-1.871 2.578-3.558C128.022 81.007 126.916 82.375 126.729 83.07zM129.307 79.511c0.089-0.102 0.18-0.206 0.269-0.311 -0.02-0.013-0.037-0.028-0.056-0.042C129.449 79.277 129.378 79.396 129.307 79.511zM127.127 83.538c0.715-0.07 2.249-0.934 3.937-1.953C129.231 82.312 127.614 83.01 127.127 83.538zM131.063 81.584c0.116-0.046 0.234-0.092 0.354-0.138 -0.01-0.021-0.021-0.04-0.028-0.059C131.281 81.453 131.173 81.52 131.063 81.584zM127.259 84.137c0.666 0.27 2.426 0.218 4.396 0.101C129.692 84.03 127.938 83.896 127.259 84.137zM131.654 84.237c0.111 0.013 0.226 0.025 0.339 0.037 0.001-0.02 0.001-0.039 0.002-0.058C131.882 84.223 131.766 84.23 131.654 84.237zM127.1 84.729c0.463 0.551 2.046 1.321 3.842 2.129C129.303 85.763 127.811 84.831 127.1 84.729zM130.941 86.858c0.082 0.057 0.167 0.114 0.25 0.168 0.009-0.015 0.018-0.03 0.024-0.045C131.126 86.942 131.032 86.9 130.941 86.858zM126.681 85.179c0.155 0.701 1.199 2.12 2.413 3.674C128.151 87.119 127.265 85.599 126.681 85.179zM129.095 88.85c0.041 0.075 0.082 0.153 0.124 0.229 0.012-0.009 0.023-0.016 0.037-0.024C129.202 88.987 129.146 88.917 129.095 88.85zM126.103 85.383c-0.188 0.693 0.076 2.433 0.43 4.373C126.502 87.784 126.424 86.026 126.103 85.383zM126.532 89.756c0.001 0.078 0.003 0.158 0.003 0.238 0.015-0.002 0.026-0.004 0.04-0.004C126.562 89.913 126.547 89.833 126.532 89.756zM125.495 85.294c-0.489 0.528-1.064 2.189-1.652 4.072C124.733 87.607 125.48 86.013 125.495 85.294zM123.843 89.366c-0.035 0.068-0.069 0.138-0.104 0.208 0.012 0.006 0.022 0.009 0.035 0.015C123.797 89.516 123.821 89.439 123.843 89.366zM125 84.934c-0.68 0.239-1.961 1.446-3.356 2.838C123.25 86.628 124.652 85.563 125 84.934zM121.644 87.772c-0.067 0.047-0.138 0.098-0.205 0.145 0.01 0.011 0.02 0.02 0.029 0.032C121.525 87.89 121.586 87.832 121.644 87.772zM124.728 84.385c-0.713-0.104-2.406 0.368-4.29 0.952C122.392 85.071 124.126 84.781 124.728 84.385zM120.438 85.339c-0.093 0.013-0.188 0.024-0.283 0.039 0.004 0.015 0.008 0.03 0.013 0.044C120.258 85.396 120.348 85.366 120.438 85.339zM124.741 83.772c-0.582-0.423-2.303-0.792-4.242-1.149C122.353 83.294 124.025 83.843 124.741 83.772zM120.499 82.623c-0.101-0.037-0.205-0.075-0.305-0.112 -0.006 0.019-0.011 0.037-0.015 0.054C120.287 82.584 120.395 82.604 120.499 82.623zM125.038 83.235c-0.318-0.643-1.669-1.769-3.22-2.986C123.147 81.704 124.372 82.968 125.038 83.235zM121.818 80.25c-0.083-0.091-0.167-0.183-0.251-0.275 -0.015 0.016-0.028 0.031-0.043 0.046C121.623 80.097 121.724 80.173 121.818 80.25zM125.551 82.899c0.017-0.718-0.656-2.344-1.464-4.142C124.588 80.663 125.085 82.35 125.551 82.899zM124.087 78.757c-0.034-0.128-0.067-0.259-0.102-0.389 -0.021 0.007-0.043 0.015-0.063 0.023C123.977 78.513 124.033 78.636 124.087 78.757z"
                   id="SvgjsPath2954" />
                <path
                   opacity="1"
                   stroke-width="none"
                   fill="#4e60a3"
                   d="M128.354 84c0 1.3-1.054 2.353-2.353 2.353 -1.3 0-2.354-1.053-2.354-2.353 0-1.299 1.055-2.354 2.354-2.354C127.302 81.646 128.354 82.7 128.354 84z"
                   id="SvgjsPath2958" />
                <path
                   opacity="0.9"
                   stroke-width="none"
                   fill="#000000"
                   d="M128.354 84c0 1.3-1.054 2.353-2.353 2.353 -1.3 0-2.354-1.053-2.354-2.353 0-1.299 1.055-2.354 2.354-2.354C127.302 81.646 128.354 82.7 128.354 84z"
                   id="SvgjsPath2959" />
                <path
                   opacity="0.5"
                   fill="url(#SvgjsLinearGradient2961)"
                   d="M122.718 86.748c0.448-0.302 1.059-0.18 1.359 0.268 0.302 0.449 0.183 1.059-0.268 1.36 -0.45 0.303-1.059 0.183-1.359-0.267C122.148 87.66 122.268 87.049 122.718 86.748L122.718 86.748z"
                   id="SvgjsPath2960" />
                <path
                   opacity="0.5"
                   fill="url(#SvgjsLinearGradient2965)"
                   d="M127.859 83.672c-0.251 0.374-0.969 0.331-1.605-0.096 -0.638-0.427-0.95-1.078-0.7-1.451l0.001-0.001c0.25-0.374 0.969-0.331 1.605 0.097C127.798 82.647 128.11 83.297 127.859 83.672 127.859 83.672 127.859 83.672 127.859 83.672z"
                   id="SvgjsPath2964" />
                <path
                   opacity="0.75"
                   fill="url(#SvgjsLinearGradient2969)"
                   d="M130.717 82.673c-0.569 0.873-2.036 0.925-3.276 0.117 -1.239-0.808-1.784-2.17-1.215-3.043 0.568-0.872 2.035-0.924 3.275-0.117C130.74 80.439 131.284 81.802 130.717 82.673L130.717 82.673z"
                   id="SvgjsPath2968" />
              </g>
            </g>
          </g>
          <g
             id="svga-group-eyesfront-right">
            <path
               opacity="1"
               stroke-width="none"
               fill="#ecc4b8"
               d="M125.801 62.098c-10.217 0-19.5 4.212-19.5 22.001 0 16.711 9.283 22.003 19.5 22.003s19.891-18.032 20.07-22.004C146.617 67.611 136.018 62.098 125.801 62.098zM137.537 87.654c-1.261 2.02-3.143 2.815-11.199 2.638 -4.84-0.107-6.516-1.95-9.809-1.166 -3.12-0.961-4.925-3.207-3.529-6.438 6.359-6.136 24.572-5.733 25.9-1.784l-0.1 4.149C138.561 85.726 138.061 86.816 137.537 87.654z"
               id="SvgjsPath4244" />
            <path
               opacity="1"
               fill="url(#SvgjsRadialGradient4246)"
               d="M122.943 68.699c-9.393-0.04-17.016 6.033-17.039 13.566 -0.025 7.535 7.572 13.67 16.961 13.713 9.391 0.037 17.014-6.033 17.037-13.566C139.928 74.878 132.336 68.743 122.943 68.699zM137.537 87.654c-1.261 2.02-3.143 2.815-11.199 2.638 -4.84-0.107-6.516-1.95-9.809-1.166 -3.12-0.961-4.925-3.207-3.529-6.438 6.359-6.136 24.572-5.733 25.9-1.784l-0.1 4.149C138.561 85.726 138.061 86.816 137.537 87.654z"
               id="SvgjsPath4245" />
            <path
               opacity="1"
               fill="url(#SvgjsRadialGradient4251)"
               d="M137.537 87.654c0.523-0.837 1.023-1.928 1.264-2.601l0.1-4.149c-1.328-3.949-19.541-4.352-25.9 1.784 -1.396 3.231 0.409 5.477 3.529 6.438 3.293-0.784 4.969 1.059 9.809 1.166C134.395 90.469 136.276 89.673 137.537 87.654z"
               id="SvgjsPath4250" />
            <path
               opacity="1"
               stroke-width="none"
               fill="#be725b"
               d="M110.136 81.193c9.617-5.761 16.701-6.128 28.117-5.394C128.724 74.298 117.749 75.387 110.136 81.193z"
               id="SvgjsPath4254" />
            <path
               opacity="1"
               stroke-width="none"
               fill="#000000"
               d="M137.181 77.957c2.553 0.508 5.299 4.381 5.299 4.381l-2.195-0.746c-0.437 1.771-0.463 1.865-1.483 3.404v-3.895c-1.487-4.183-24.19-4.134-27.431 4.181C111.561 83.949 114.994 73.539 137.181 77.957zM126.67 90.467c9.5 0.058 10.063-0.937 10.875-3.027 -1.558 1.71-3.121 2.644-11.125 2.476 -5.622-0.117-6.938-2.476-11.563-0.495C118.357 88.212 121.295 90.433 126.67 90.467z"
               id="SvgjsPath4255" />
          </g>
        </g>
        <g
           id="svga-group-facehighlight-single">
          <path
             opacity="1"
             fill="url(#SvgjsRadialGradient2886)"
             d="M141 113.974c0.035 22.622-18.292 40.994-40.938 41.025 -22.642 0.037-41.028-18.273-41.063-40.9 -0.035-22.62 18.292-41.064 40.937-41.1C122.579 72.964 140.967 91.349 141 113.974z"
             id="SvgjsPath2885" />
          <path
             opacity="1"
             fill="url(#SvgjsRadialGradient2890)"
             d="M137.5 53.999c0 20.711-16.789 37.5-37.499 37.5 -20.711 0-37.501-16.789-37.501-37.5s16.79-37.5 37.501-37.5C120.711 16.499 137.5 33.288 137.5 53.999z"
             id="SvgjsPath2889" />
        </g>
        <g
           id="svga-group-eyebrows-left">
          <path
             opacity="1"
             stroke-width="none"
             fill="#c8a77b"
             d="M52.488 73.87c7.475-9.383 20.338-7.822 30.878-6.314 2.681 0.384 5.441 0.672 8.07 1.336 1.884 0.475 3.365 2.622 1.851 4.356 -0.708 0.825-2.253 0.672-3.207 0.652C77.459 73.645 63.193 66.387 52.488 73.87z"
             id="SvgjsPath3674" />
        </g>
        <g
           id="svga-group-eyebrows-right">
          <path
             opacity="1"
             stroke-width="none"
             fill="#c8a77b"
             d="M147.577 73.49c-2.164-1.448-4.454-2.47-7.043-2.889 -9.497-1.54-27.586 4.79-32.341 3.45 -2.912-0.822-2.323-3.739-1.035-4.458 0.775-0.433 0.99-0.422 7.909-1.612C126.824 65.961 139.988 64.355 147.577 73.49z"
             id="SvgjsPath3675" />
        </g>
        <g
           id="svga-group-nose-single">
          <path
             opacity="1"
             stroke-width="none"
             fill="#dda696"
             d="M109.895 118.829c0.19-0.512 0.307-1.047 0.396-1.584 0.033-0.198-0.229-0.929-0.252-0.697 -0.101 0.941-0.612 2.262-1.6 2.551 -1.133 0.329-1.783-0.056-1.886-1.172 -0.104-1.125 0.297-2.619-0.109-3.665 -0.264-0.676-0.856-1.226-1.464-1.606 0.458 2.04 0.823 4.704-1.128 6.164 0.167 0.199 0.319 0.293 0.467 0.333 -0.153 0.026-0.308 0.059-0.467 0.13 -0.771 0.352-3.586 1.015-4.404 0.657 -0.193-0.085-0.622-0.152-1.16-0.204 -0.362-0.315-1.023-1.138-1.332-1.328 -1.215-0.751-1.851-2.069-1.926-3.472 -0.163-2.955 1.373-6.245 4.861-7.528 -3.578-1.004-4.064 4.863-6.408 6.172 -1.402 0.783-2.741 1.479-2.716 3.229 0.008 0.579 0.078 1.419 0.34 2.122 -0.421-0.591-0.699-1.125-0.739-0.653 -0.342 3.979 3.522 2.884 5.042 3.158 1.255 0.227 3.412 0.544 4.459 0.563 1.137 0.02 2.858-0.377 3.981-0.563 1.087-0.181 2.985 0.037 4.381-0.59 0.824-0.371 2.006-0.612 2.006-2.211l-0.402 0.326C109.855 118.916 109.878 118.874 109.895 118.829z"
             id="SvgjsPath3671" />
          <path
             opacity="1"
             stroke-width="none"
             fill="#be725b"
             d="M90.642 116.322c0.15-0.48 0.371-0.961 0.73-1.324 -0.631 1.095-0.719 2.661-0.152 3.799 0.697 1.399 1.94 1.104 3.131 0.563 1.191-0.54 1.188-0.938 2.426-0.526 0.963 0.319 1.737 0.795 2.797 0.793 1.132-0.002 1.977-0.471 3.03-0.798 1.278-0.38 2.357-0.162 3.559 0.378 1.13 0.509 2.426 1.15 3.301-0.117 0.773-1.148 0.69-2.922 0.017-4.092 1.51 1.542 1.145 5.938-1.745 5.384 -0.397-0.08-1.098-0.563-1.451-0.469 -0.64 0.175-1.445 0.007-2.091-0.054 -1.175-0.112-2.195-0.108-3.312 0.174 -0.429 0.1-0.869 0.158-1.309 0.154 -0.525-0.007-1.057-0.268-1.556-0.237 -1.4 0.086-1.984-0.214-3.39-0.124 -1.197 0.077-1.955 1.13-3.142 0.177C90.436 119.125 90.275 117.566 90.642 116.322 90.719 116.078 90.497 116.814 90.642 116.322zM101.211 107.662c0.557 0.115 1.063 0.367 1.531 0.684 -1.391-2.209-4.931-1.408-6.339 0.345C97.843 107.926 99.562 107.296 101.211 107.662 101.478 107.719 100.678 107.543 101.211 107.662z"
             id="SvgjsPath3672" />
          <path
             opacity="1"
             stroke-width="none"
             fill="#fbe4dd"
             d="M93.079 117.678c-0.216-1.586 0.406-3.049-0.995-1.972C91.214 116.375 93.418 120.168 93.079 117.678z"
             id="SvgjsPath3673" />
        </g>
        <g
           id="svga-group-beardwrap">
          <g
             id="svga-group-beard-single">
            <path
               opacity="1"
               stroke-width="none"
               fill="#2a232b"
               d="M100,18.13L100,18.13L100,18.13L100,18.13z"
               id="SvgjsPath3465" />
          </g>
        </g>
        <g
           id="svga-group-mustache-single">
          <path
             opacity="1"
             stroke-width="none"
             fill="#2a232b"
             d="M100,18.13L100,18.13L100,18.13L100,18.13z"
             id="SvgjsPath3019" />
        </g>
        <g
           id="svga-group-hair-front">
          <path
             stroke="none"
             opacity="1"
             stroke-width="none"
             fill="#c3ae94"
             d="M162.973 40.273C147.94-14.754 61.012-21.557 36.378 40.045c-11.02 27.558 15.94 73.711 15.94 73.711 -0.962-6.957-4.86-37.856-4.86-37.856 0-2 1.915-4.507 2.272-5.973 1.718-7.055-4.882-16.666-2.272-28.859 2.222-10.38 5.558-17.637 15.408-23.673 13.231-8.108 20.458 5.525 26.34 9.323 4.617 2.98 17.091 3.121 21.972 0.597 6.122-3.166 14.95-14.205 24.761-11.017 11.622 3.776 16.601 19.828 17.03 22.789 0.916 8.798-4.469 26.247-2.699 30.84 0.504 1.309 1.617 3.689 1.898 4.807 1.16 4.612-4.088 39.009-4.088 39.009S170.468 67.708 162.973 40.273z"
             id="SvgjsPath3584" />
          <path
             stroke="none"
             opacity="1"
             stroke-width="none"
             fill="#b49876"
             d="M137.697 13.5C127.979 8.857 119 17 110 23c-13.773 7.069-21-5-32-10 -9-5-21 3-28 12 -10.24 15.824-7.005 28.784-3.229 45.535 -3.841 3.196 2.723 27.464 5.036 39.4C50.406 99.271 47.458 75.9 47.458 75.9c0-0.415 0.096-0.854 0.229-1.299 0.511-1.699 1.76-3.512 2.042-4.674 1.718-7.055-4.882-16.666-2.272-28.859 2.222-10.38 5.558-17.637 15.408-23.673 13.231-8.108 20.458 5.525 26.34 9.323 4.617 2.98 17.091 3.121 21.972 0.597 6.122-3.166 14.95-14.205 24.761-11.017 11.622 3.776 16.601 19.828 17.03 22.789 0.916 8.798-4.469 26.247-2.699 30.84 0.504 1.309 1.617 3.689 1.898 4.807 0.037 0.146 0.066 0.323 0.091 0.527 0.001-0.016 0.003-0.032 0.005-0.047 0.54 4.834-2.166 24.674-3.489 33.824 3.99-18.04 8.449-34.593 4.355-41.351C156.869 45.402 161.567 24.902 137.697 13.5z"
             id="SvgjsPath3585" />
          <path
             stroke="none"
             opacity="1"
             stroke-width="none"
             fill="#957144"
             d="M148.08 113.744c8.659-21.56 17.811-48.317 13.182-72.508 -1.357-4.808-3.467-12.578-12.334-22.463C115.737-18.332 59.483-6.218 39.958 35.8c-11.417 24.404-0.214 54.246 12.359 77.957 -11.042-19.293-16.693-32.944-18.75-54.101 -0.622-7.079 0.718-16.492 4.499-24.868 15.194-33.563 54.39-49.58 87.349-35.863 13.259 5.328 27.885 17.106 35.03 32.893 4.882 10.828 4.249 20.507 3.181 32.421 -0.771 6.491-3.043 16.094-3.617 17.865 -2.544 8.367-0.627 2.872-4.759 14.623C152.264 104.495 150.642 107.987 148.08 113.744z"
             id="SvgjsPath3586" />
        </g>
        <g
           id="svga-group-glasses-single">
          <path
             opacity="0.5"
             stroke-width="none"
             fill="#26120b"
             d="M107.18 85.7c0.25 0.34 0.26 0.68 0.32 1.27 0.06 0.58 0.08 1.01 0.08 1.01s0.11 1.46 0.24 2.33c0.13 0.88 0 1.63-1.2 1.63 -1.48 0-1.56-3.82-1.69-4.67C104.62 85.27 105.99 84.07 107.18 85.7zM92.82 85.7c-0.25 0.34-0.26 0.68-0.32 1.27 -0.06 0.58-0.08 1.01-0.08 1.01s-0.11 1.46-0.24 2.33c-0.13 0.88 0 1.63 1.2 1.63 1.48 0 1.56-3.82 1.69-4.67C95.38 85.27 94.01 84.07 92.82 85.7z"
             id="SvgjsPath3453" />
          <path
             opacity="0.2"
             stroke-width="none"
             fill="#ffffff"
             d="M148.51 85.14c-0.54 5.69-4.31 13.57-21.04 13.58h-0.04c-7.37 0-13.2-1.97-16.85-5.71 -2.77-2.83-4.15-6.52-4.15-10.94C116.3 76.92 140.48 77.34 148.51 85.14zM51.42 83.67c0.04 5.68 2.88 15.03 21.11 15.05h0.04c7.37 0 13.2-1.97 16.85-5.71 2.5-2.56 3.88-5.81 4.12-9.68C82.89 76.69 58.36 77.42 51.42 83.67z"
             id="SvgjsPath3454" />
          <path
             opacity="0.4"
             stroke-width="none"
             fill="#ffffff"
             d="M148.59 83.53c0 0.51-0.02 1.05-0.08 1.6 -8.03-7.8-32.21-8.22-42.07-3.07 0-0.16-0.01-0.31-0.01-0.47 0-0.09 1.62-9.54 19.19-9.54C142.35 72.05 148.59 79.09 148.59 83.53zM74.38 72.05c-16.73 0-22.97 7.04-22.97 11.48 0 0.04 0 0.09 0 0.13 6.95-6.25 31.48-6.98 42.12-0.34 0.04-0.57 0.05-1.14 0.03-1.73C93.57 81.5 91.95 72.05 74.38 72.05z"
             id="SvgjsPath3455" />
          <path
             opacity="1"
             stroke-width="none"
             fill="#26120b"
             d="M125.62 71.84c-15.58 0-18.72 7.28-19.28 9.27 -0.84-0.18-1.19-0.23-1.73-0.74 -2.59-2.44-6.69-2.37-9.21 0 -0.54 0.51-0.9 0.56-1.73 0.74 -0.56-1.99-3.7-9.27-19.28-9.27 -16.89 0-23.18 7.17-23.18 11.69 0 5.75 2.77 15.4 21.33 15.4 18.84 0 21.17-11.69 21.25-17.04 1.38-0.29 1.78-0.33 2.51-1.01 2.23-2.09 5.19-2.11 7.42 0 0.74 0.69 1.14 0.72 2.51 1.01 0.08 5.35 2.41 17.04 21.25 17.04 18.55 0 21.33-9.65 21.33-15.4C148.8 79.01 142.51 71.84 125.62 71.84zM72.53 98.22c-17.93-0.02-20.61-9.2-20.61-14.69 0-4.24 6.1-10.98 22.47-10.98 17 0 18.69 8.96 18.69 9.06C93.31 92.22 85.3 98.23 72.53 98.22zM127.47 98.22c-12.77 0.01-20.79-6-20.54-16.61 0-0.09 1.69-9.06 18.69-9.06 16.37 0 22.47 6.74 22.47 10.98C148.09 89.02 145.41 98.2 127.47 98.22z"
             id="SvgjsPath3456" />
        </g>
      </g>
    </g>
    <rect
       style="display:none;"
       opacity="0.5"
       fill="#ecf0f1"
       y="185"
       x="0"
       height="15"
       width="200"
       id="SvgjsRect1036" />
    <text
       y="185"
       x="100"
       fill="#000000"
       font-weight="400"
       text-anchor="middle"
       font-size="0.84em"
       style="font-size:0.84em;font-family:&quot;Roboto&quot;, &quot;Helvetica Neue&quot;, Helvetica, Arial, sans-serif;text-anchor:middle;font-weight:400;display:none;"
       font-family="&quot;Roboto&quot;, &quot;Helvetica Neue&quot;, Helvetica, Arial, sans-serif"
       id="SvgjsText1037"><tspan
         style="font-size:0.84em;font-family:&quot;Roboto&quot;, &quot;Helvetica Neue&quot;, Helvetica, Arial, sans-serif;text-anchor:middle;font-weight:400;"
         x="100"
         dy="1.2em"
         id="SvgjsTspan1038">Created on AvatarMaker.com</tspan></text>
  </g>
  <defs
     id="SvgjsDefs1001">
    <radialGradient
       class="svga-on-canvas-facehighlight-gradient-single-0"
       gradientUnits="userSpaceOnUse"
       r="41"
       cy="114"
       cx="100"
       id="SvgjsRadialGradient2886">
      <stop
         offset="0"
         stop-color="#fbe4dd"
         stop-opacity="0.5"
         id="SvgjsStop2887" />
      <stop
         offset="0.9"
         stop-color="#ecc4b8"
         stop-opacity="0"
         id="SvgjsStop2888" />
    </radialGradient>
    <radialGradient
       class="svga-on-canvas-facehighlight-gradient-single-1"
       gradientUnits="userSpaceOnUse"
       r="37"
       cy="54"
       cx="100"
       id="SvgjsRadialGradient2890">
      <stop
         offset="0"
         stop-color="#fbe4dd"
         stop-opacity="0.5"
         id="SvgjsStop2891" />
      <stop
         offset="0.9"
         stop-color="#ecc4b8"
         stop-opacity="0"
         id="SvgjsStop2892" />
    </radialGradient>
    <radialGradient
       class="svga-on-canvas-eyesiris-gradient-left-1"
       gradientUnits="userSpaceOnUse"
       gradientTransform="matrix(0.096 -0.0248 0.0245 0.0961 141.2814 119.9893)"
       r="59.751"
       cy="-521.042"
       cx="-568.659"
       id="SvgjsRadialGradient2928">
      <stop
         offset="0"
         stop-color="#ffffff"
         stop-opacity="1"
         id="SvgjsStop2929" />
      <stop
         offset="1"
         stop-color="#ffffff"
         stop-opacity="0"
         id="SvgjsStop2930" />
    </radialGradient>
    <radialGradient
       class="svga-on-canvas-eyesiris-gradient-left-2"
       gradientUnits="userSpaceOnUse"
       gradientTransform="matrix(0.0991 8.856319e-004 -0.0011 0.0991 131.1134 135.9855)"
       r="59.745"
       cy="-519.099"
       cx="-582.838"
       id="SvgjsRadialGradient2932">
      <stop
         offset="0"
         stop-color="#ffffff"
         stop-opacity="1"
         id="SvgjsStop2933" />
      <stop
         offset="1"
         stop-color="#ffffff"
         stop-opacity="0"
         id="SvgjsStop2934" />
    </radialGradient>
    <linearGradient
       class="svga-on-canvas-eyesiris-gradient-left-5"
       gradientUnits="userSpaceOnUse"
       gradientTransform="matrix(1 0 0 1 -52 0)"
       y2="87.152"
       x2="123.606"
       y1="88.268"
       x1="122.67"
       id="SvgjsLinearGradient2938">
      <stop
         offset="0"
         stop-color="#ffffff"
         stop-opacity="1"
         id="SvgjsStop2939" />
      <stop
         offset="1"
         stop-color="#ffffff"
         stop-opacity="0"
         id="SvgjsStop2940" />
    </linearGradient>
    <linearGradient
       class="svga-on-canvas-eyesiris-gradient-left-6"
       gradientUnits="userSpaceOnUse"
       gradientTransform="matrix(1 0 0 1 -52 0)"
       y2="83.189"
       x2="126.463"
       y1="82.296"
       x1="127.212"
       id="SvgjsLinearGradient2942">
      <stop
         offset="0"
         stop-color="#ffffff"
         stop-opacity="1"
         id="SvgjsStop2943" />
      <stop
         offset="1"
         stop-color="#ffffff"
         stop-opacity="0"
         id="SvgjsStop2944" />
    </linearGradient>
    <linearGradient
       class="svga-on-canvas-eyesiris-gradient-left-7"
       gradientUnits="userSpaceOnUse"
       gradientTransform="matrix(1 0 0 1 -52 0)"
       y2="81.879"
       x2="127.91"
       y1="79.822"
       x1="129.636"
       id="SvgjsLinearGradient2946">
      <stop
         offset="0"
         stop-color="#ffffff"
         stop-opacity="1"
         id="SvgjsStop2947" />
      <stop
         offset="1"
         stop-color="#ffffff"
         stop-opacity="0"
         id="SvgjsStop2948" />
    </linearGradient>
    <radialGradient
       class="svga-on-canvas-eyesiris-gradient-right-1"
       gradientUnits="userSpaceOnUse"
       gradientTransform="matrix(0.096 -0.0248 0.0245 0.0961 193.2804 119.9894)"
       r="59.752"
       cy="-521.042"
       cx="-568.654"
       id="SvgjsRadialGradient2951">
      <stop
         offset="0"
         stop-color="#ffffff"
         stop-opacity="1"
         id="SvgjsStop2952" />
      <stop
         offset="1"
         stop-color="#ffffff"
         stop-opacity="0"
         id="SvgjsStop2953" />
    </radialGradient>
    <radialGradient
       class="svga-on-canvas-eyesiris-gradient-right-2"
       gradientUnits="userSpaceOnUse"
       gradientTransform="matrix(0.0991 8.856319e-004 -0.0011 0.0991 183.1126 135.9856)"
       r="59.747"
       cy="-519.102"
       cx="-582.833"
       id="SvgjsRadialGradient2955">
      <stop
         offset="0"
         stop-color="#ffffff"
         stop-opacity="1"
         id="SvgjsStop2956" />
      <stop
         offset="1"
         stop-color="#ffffff"
         stop-opacity="0"
         id="SvgjsStop2957" />
    </radialGradient>
    <linearGradient
       class="svga-on-canvas-eyesiris-gradient-right-5"
       gradientUnits="userSpaceOnUse"
       y2="87.152"
       x2="123.606"
       y1="88.268"
       x1="122.67"
       id="SvgjsLinearGradient2961">
      <stop
         offset="0"
         stop-color="#ffffff"
         stop-opacity="1"
         id="SvgjsStop2962" />
      <stop
         offset="1"
         stop-color="#ffffff"
         stop-opacity="0"
         id="SvgjsStop2963" />
    </linearGradient>
    <linearGradient
       class="svga-on-canvas-eyesiris-gradient-right-6"
       gradientUnits="userSpaceOnUse"
       y2="83.189"
       x2="126.463"
       y1="82.296"
       x1="127.212"
       id="SvgjsLinearGradient2965">
      <stop
         offset="0"
         stop-color="#ffffff"
         stop-opacity="1"
         id="SvgjsStop2966" />
      <stop
         offset="1"
         stop-color="#ffffff"
         stop-opacity="0"
         id="SvgjsStop2967" />
    </linearGradient>
    <linearGradient
       class="svga-on-canvas-eyesiris-gradient-right-7"
       gradientUnits="userSpaceOnUse"
       y2="81.879"
       x2="127.91"
       y1="79.822"
       x1="129.636"
       id="SvgjsLinearGradient2969">
      <stop
         offset="0"
         stop-color="#ffffff"
         stop-opacity="1"
         id="SvgjsStop2970" />
      <stop
         offset="1"
         stop-color="#ffffff"
         stop-opacity="0"
         id="SvgjsStop2971" />
    </linearGradient>
    <linearGradient
       class="svga-on-canvas-chinshadow-gradient-single-0"
       gradientUnits="userSpaceOnUse"
       y2="131"
       x2="100"
       y1="171"
       x1="100"
       id="SvgjsLinearGradient3515">
      <stop
         offset="0"
         stop-color="#dda696"
         stop-opacity="0.8"
         id="SvgjsStop3516" />
      <stop
         offset="0.7"
         stop-color="#be725b"
         stop-opacity="1"
         id="SvgjsStop3517" />
    </linearGradient>
    <linearGradient
       class="svga-on-canvas-mouth-gradient-single-0"
       gradientUnits="userSpaceOnUse"
       y2="139"
       x2="100"
       y1="142"
       x1="100"
       id="SvgjsLinearGradient3624">
      <stop
         offset="0.1"
         stop-color="#e4b5a7"
         stop-opacity="1"
         id="SvgjsStop3625" />
      <stop
         offset="1"
         stop-color="#dda696"
         stop-opacity="1"
         id="SvgjsStop3626" />
    </linearGradient>
    <radialGradient
       class="svga-on-canvas-eyesback-gradient-left-0"
       gradientUnits="userSpaceOnUse"
       gradientTransform="matrix(-1.0592 4.000000e-004 -4.000000e-004 0.9318 206.5112 5.1767)"
       r="12.84"
       cy="82.93"
       cx="125.379"
       id="SvgjsRadialGradient4199">
      <stop
         offset="0"
         stop-color="#ffffff"
         stop-opacity="1"
         id="SvgjsStop4200" />
      <stop
         offset="0.544"
         stop-color="#fdfefe"
         stop-opacity="1"
         id="SvgjsStop4201" />
      <stop
         offset="0.74"
         stop-color="#f6f8f9"
         stop-opacity="1"
         id="SvgjsStop4202" />
      <stop
         offset="0.879"
         stop-color="#eaeff2"
         stop-opacity="1"
         id="SvgjsStop4203" />
      <stop
         offset="0.992"
         stop-color="#d9e3e8"
         stop-opacity="1"
         id="SvgjsStop4204" />
      <stop
         offset="1"
         stop-color="#d8e2e7"
         stop-opacity="1"
         id="SvgjsStop4205" />
    </radialGradient>
    <radialGradient
       class="svga-on-canvas-eyesback-gradient-right-0"
       gradientUnits="userSpaceOnUse"
       gradientTransform="matrix(1.0592 4.000000e-004 4.000000e-004 0.9318 -6.5112 5.1767)"
       r="12.841"
       cy="82.93"
       cx="125.001"
       id="SvgjsRadialGradient4207">
      <stop
         offset="0"
         stop-color="#ffffff"
         stop-opacity="1"
         id="SvgjsStop4208" />
      <stop
         offset="0.544"
         stop-color="#fdfefe"
         stop-opacity="1"
         id="SvgjsStop4209" />
      <stop
         offset="0.74"
         stop-color="#f6f8f9"
         stop-opacity="1"
         id="SvgjsStop4210" />
      <stop
         offset="0.879"
         stop-color="#eaeff2"
         stop-opacity="1"
         id="SvgjsStop4211" />
      <stop
         offset="0.992"
         stop-color="#d9e3e8"
         stop-opacity="1"
         id="SvgjsStop4212" />
      <stop
         offset="1"
         stop-color="#d8e2e7"
         stop-opacity="1"
         id="SvgjsStop4213" />
    </radialGradient>
    <radialGradient
       class="svga-on-canvas-eyesfront-gradient-left-0"
       gradientUnits="userSpaceOnUse"
       gradientTransform="matrix(-1.0592 4.000000e-004 -4.000000e-004 0.9318 206.5112 5.1767)"
       r="12.84"
       cy="82.93"
       cx="125.379"
       id="SvgjsRadialGradient4215">
      <stop
         offset="0"
         stop-color="#ffffff"
         stop-opacity="1"
         id="SvgjsStop4216" />
      <stop
         offset="0.544"
         stop-color="#fdfefe"
         stop-opacity="1"
         id="SvgjsStop4217" />
      <stop
         offset="0.74"
         stop-color="#f6f8f9"
         stop-opacity="1"
         id="SvgjsStop4218" />
      <stop
         offset="0.879"
         stop-color="#eaeff2"
         stop-opacity="1"
         id="SvgjsStop4219" />
      <stop
         offset="0.992"
         stop-color="#d9e3e8"
         stop-opacity="1"
         id="SvgjsStop4220" />
      <stop
         offset="1"
         stop-color="#d8e2e7"
         stop-opacity="1"
         id="SvgjsStop4221" />
    </radialGradient>
    <radialGradient
       class="svga-on-canvas-eyesfront-gradient-left-3"
       gradientUnits="userSpaceOnUse"
       gradientTransform="matrix(0.9998 0.0183 0.0166 -0.7038 -47.7588 136.6255)"
       r="17.898"
       fy="77.197"
       fx="133.802"
       cy="81.096"
       cx="123.218"
       id="SvgjsRadialGradient4225">
      <stop
         offset="0"
         stop-color="#dda696"
         stop-opacity="1"
         id="SvgjsStop4226" />
      <stop
         offset="0.7"
         stop-color="#dda696"
         stop-opacity="0.3"
         id="SvgjsStop4227" />
      <stop
         offset="1"
         stop-color="#ecc4b8"
         stop-opacity="0"
         id="SvgjsStop4228" />
    </radialGradient>
    <radialGradient
       class="svga-on-canvas-eyesfront-gradient-left-4"
       gradientUnits="userSpaceOnUse"
       gradientTransform="matrix(1.0971 -0.0499 0.0576 0.9543 -20.1632 27.912)"
       r="23.208"
       cy="81.496"
       cx="79.496"
       id="SvgjsRadialGradient4230">
      <stop
         offset="0.9"
         stop-color="#000000"
         stop-opacity="0"
         id="SvgjsStop4231" />
      <stop
         offset="1"
         stop-color="#000000"
         stop-opacity="0.2"
         id="SvgjsStop4232" />
    </radialGradient>
    <radialGradient
       class="svga-on-canvas-eyesfront-gradient-right-0"
       gradientUnits="userSpaceOnUse"
       gradientTransform="matrix(1.0592 4.000000e-004 4.000000e-004 0.9318 -6.5112 5.1767)"
       r="12.841"
       cy="82.93"
       cx="125.001"
       id="SvgjsRadialGradient4236">
      <stop
         offset="0"
         stop-color="#ffffff"
         stop-opacity="1"
         id="SvgjsStop4237" />
      <stop
         offset="0.544"
         stop-color="#fdfefe"
         stop-opacity="1"
         id="SvgjsStop4238" />
      <stop
         offset="0.74"
         stop-color="#f6f8f9"
         stop-opacity="1"
         id="SvgjsStop4239" />
      <stop
         offset="0.879"
         stop-color="#eaeff2"
         stop-opacity="1"
         id="SvgjsStop4240" />
      <stop
         offset="0.992"
         stop-color="#d9e3e8"
         stop-opacity="1"
         id="SvgjsStop4241" />
      <stop
         offset="1"
         stop-color="#d8e2e7"
         stop-opacity="1"
         id="SvgjsStop4242" />
    </radialGradient>
    <radialGradient
       class="svga-on-canvas-eyesfront-gradient-right-3"
       gradientUnits="userSpaceOnUse"
       gradientTransform="matrix(-0.9998 0.0183 -0.0166 -0.7038 246.9601 136.6328)"
       r="17.898"
       fy="77.197"
       fx="133.402"
       cy="81.096"
       cx="122.818"
       id="SvgjsRadialGradient4246">
      <stop
         offset="0"
         stop-color="#dda696"
         stop-opacity="1"
         id="SvgjsStop4247" />
      <stop
         offset="0.7"
         stop-color="#dda696"
         stop-opacity="0.3"
         id="SvgjsStop4248" />
      <stop
         offset="1"
         stop-color="#ecc4b8"
         stop-opacity="0"
         id="SvgjsStop4249" />
    </radialGradient>
    <radialGradient
       class="svga-on-canvas-eyesfront-gradient-right-4"
       gradientUnits="userSpaceOnUse"
       gradientTransform="matrix(-1.0971 -0.0499 -0.0576 0.9543 220.163 27.9157)"
       r="23.208"
       cy="81.511"
       cx="79.859"
       id="SvgjsRadialGradient4251">
      <stop
         offset="0.9"
         stop-color="#000000"
         stop-opacity="0"
         id="SvgjsStop4252" />
      <stop
         offset="1"
         stop-color="#000000"
         stop-opacity="0.2"
         id="SvgjsStop4253" />
    </radialGradient>
  </defs>
  <g
     transform="matrix(0.78443923,0,0,1.1739655,-6.9802616,-707.15329)"
     id="g1073">
    <path
       style="fill:#0000ff;stroke:#000000;stroke-width:1px;stroke-linecap:butt;stroke-linejoin:miter;stroke-opacity:1"
       d="m 206.65469,838.74499 c 23.34171,35.56254 96.40172,46.97456 142.74213,51.12612 46.34041,4.15156 94.86954,-0.16381 131.84937,-7.66797 36.97983,-7.50415 90.09328,-36.34715 90.09328,-36.34715 0,0 4.92232,46.23082 -19.65127,85.90079 -39.30599,63.45298 -142.08136,82.05712 -172.53389,79.85812 -30.45252,-2.199 -77.89347,-11.1166 -131.20041,-61.595 -53.30693,-50.47844 -41.29921,-111.27491 -41.29921,-111.27491 z"
       id="path199"
       sodipodi:nodetypes="czzcszzc" />
    <path
       style="fill:none;stroke:#000000;stroke-width:1px;stroke-linecap:butt;stroke-linejoin:miter;stroke-opacity:1"
       d="m 287.48518,917.8196 c 46.87428,19.46454 157.18796,19.86881 191.36269,3.48567"
       id="path1024"
       sodipodi:nodetypes="cc" />
    <path
       sodipodi:nodetypes="cc"
       id="path1024-3"
       d="m 288.23936,940.57048 c 46.87428,19.46454 157.18796,19.86881 191.36269,3.48567"
       style="overflow:hidden;fill:none;stroke:#000000;stroke-width:1px;stroke-linecap:butt;stroke-linejoin:miter;stroke-opacity:1" />
    <path
       sodipodi:nodetypes="cc"
       id="path1024-6"
       d="m 290.59447,960.73346 c 46.87428,19.46454 157.18796,19.86881 191.36269,3.48567"
       style="overflow:hidden;fill:none;stroke:#000000;stroke-width:1px;stroke-linecap:butt;stroke-linejoin:miter;stroke-opacity:1" />
  </g>
</svg>
